<mxfile host="Electron" agent="Mozilla/5.0 (Windows NT 10.0; Win64; x64) AppleWebKit/537.36 (KHTML, like Gecko) draw.io/27.0.2 Chrome/134.0.6998.205 Electron/35.3.0 Safari/537.36" version="27.0.2">
  <diagram name="Page-1" id="McbeaKVIkzHB8RpKieM3">
    <mxGraphModel dx="1426" dy="849" grid="1" gridSize="10" guides="1" tooltips="1" connect="1" arrows="1" fold="1" page="1" pageScale="1" pageWidth="1100" pageHeight="850" math="0" shadow="0">
      <root>
        <mxCell id="0" />
        <mxCell id="1" parent="0" />
        <mxCell id="qN_40rcRcU1MGpUcR6L0-1" value="" style="shape=image;verticalLabelPosition=bottom;labelBackgroundColor=default;verticalAlign=top;aspect=fixed;imageAspect=0;image=data:image/png,iVBORw0KGgoAAAANSUhEUgAAApsAAAG0CAYAAAB9gOwaAAAAAXNSR0IArs4c6QAAAARnQU1BAACxjwv8YQUAAAAJcEhZcwAADsMAAA7DAcdvqGQAAGNqSURBVHhe7d0JXBRXogb6zwVEVHBBERRBxX2JGhcwUWPUuMZodDSazSSOTpKZJM7LzLzMnTuZ5b54517vmDijIy4xY6KJxi3GqHGJa1zjDoqKYuOCuwICCiKvz+nTdDd0QUNXQXfz/f3Vj6pTTdF9pOHj1Fmq5OeY8kFEREREZICq6iMRERERke4YNomIiIjIMAybRERERGQYGTbDI2Pkgbv0uI4nPReBdaONdaONdaONdayNdaONdaON19HGutFWns+FA4SIiIiIyDC8jU5EREREhmHYJCIiIiLDMGwSERERkWEYNomIiIjIMAybRERERGQYhk0iIiIiMgzDJhEREREZhmGTiIiIiAzDsElEREREhmHYJCIiIiLDMGwSERERkWEYNomIiIjIMAybRERERGQYhk0iIiIiMgzDJhEREREZhmGTiIiIiAwjw2Z4ZIw8cJce1/Gk5yKwbrSxbrSxbrSxjrWxbrSxbrTxOtpYN9rK87lUyc8x5at9IiIiIiJd8TY6ERERERmGYZOIiIiIDMOwSURERESGYdgkIiIiIsMwbBIRERGRYRg2iYiIiMgwDJtEREREZBiGTSIiIiIyDMMmERERERmGYZOIiIiIDMOwSURERESGYdgkIiIiIsMwbBIRERGRYRg2iYiIiMgwDJtEREREZBgZNsMjY+SBu/S4jic9F4F1o411o411o411rI11o411o43X0ca60Vaez6VKfo4pX+0TEREREemKt9GJiIiIyDAMm0RERERkGIZNIiIiIjIMwyYRERERGYZhk4iIiIgMw7BJRERERIZh2CQiIiIiwzBsEhEREZFhGDaJiIiIyDAMm0RERERkGIZNIiIiIjIMwyYRERERGYZhk4iIiIgMw7BJRERERIZh2CQiIiIiw1TJzzHlq33ycImJSQioWQN+fn6qhNyVl2f59q9WrYr8SO7LN1dp3sM8VPerpkpID7m5eeb3PutUTw/NdVq1WlVUrcr3v16ysrLh7+ePyMgmqoRIhc3wyBhcMe1TRWWnx3U86bkInnSdagHN0aB+Pfj7uxc2r167gcahDdVR2XnSdcp6jby8R/JjNfMvHIF1o83V6zwyp01Rr37VnQcj1rG24q6TYw5G/i6GzcpWN6Vhf51c8x9F4r1ftUrpw6av101ZZWZmIdMcOHMyk1RJ2TFTaPO2umHLpheJ7TMKM2d8iJheXVUJuct08S7yzf+iIuqpEnJXWvp9JKfcQZeOYaqE9LB7vwmx3SMK/jAi9yUkXkdoo1oIqV9LlZC74uYvwZGjCZg7+yNVQsQ+m0RERERkIIZNIiIiIjIMwyYRERERGYZhk4iIiIgMw7BJRERERIZh2CQiIiIiwzBsEhEREZFhGDaJiIiIyDAMm0RERERkGIZNIiIiIjIMw2a5uYCP+0aiin8kpm5URUREREQ+jmGzvCRtxXL317snIiIi8ioMm+UhaSF6t/8L9qpDIiIiosqCYdMw2zDV33LbvAqDJhEREVVSDJtEREREZBiGTcP0R1yOCfnWbe1EVV56N2+lYe13uxHbuy9270tE3MJvsHjpRqz5dhe27zqCU6dNuJt2Tz2aiIiIyHPIsBkeGSMP3KXHdTzpuQi6XWfSGrVXOicSzuNf81fjyLGzCA6uh8zM+7h67TaSL6Ti2Ikk7Nh1FMtX/oBPZn+NGZ98iVXf7MDx+HO4fz9HXaEoX6xjX3xNAutGG+tYG+tGG+tGm17X+XzJarXnHtaxNm+rmyr5OaZ8tU9G2vgBqoxcKnenrDUhbojcLdaduxnmoLkGubkPVYnrqlWrilYtI9D1sVZoFd0UVapUUWfInuniXeSb/0VF1FMl5K609PtITrmDLh3DVAnpYfd+E2K7R8j3NukjIfE6QhvVQkj9WqqE3BU3fwmOHE3A3NkfqRIi3kb3aImnTQ5Bs0mTJoiOjkazZs0QEhICPz8/daaovLxHSDxjwpdfb8GsOSuwZ188cnJy1VkiIiKi8sGWzfJSQsvmH//8f9i8ZZc6sujYsQuaRkTK/YCAAPzud7+T+/bu3buH1NRUXL58GefPn5cfHz16pM468jeH0xYtItGyZRSqVaumSiu3Bzl5QH4+atSorkrIXQ/Nf+jkPMhDYKD2H0NUehn3HqB2rRrgTQr9ZGfnorpfNfhVZ7uLXlauXIMLF87ji89mqBIihs3yU0LYTDp3ATdv3lFHFueSryHpfKo6Ajp37ox69erJ4FmzZk25L1o4AwMD1SPM4enBA5w6dQonTpxAcnKyOUcV/e+tFRiA3rGPoUO7FpX+9vrV6xkiayIstI4qIXfdy8xB6rV0tGoRokpID8cSUtGpXWNUrcq0qZdk023zz9FA1A0KUCXkrkWffYX4hFOYP/e/VQkRw2b5KUOfzes37iBu4VrNlkqrOnXqyFvrLVu2RPv27VGjRg1ZfufOHRw8eBCHDx+WIbSwsMYN8OywJ+THyop9NvXHPpvGYJ9N/bHPpv7YZ5Oc4U8tD9aoYT081aeLOtKWkZGBhIQErF27Fn/729+wePFixMfHIygoCM888wymTZuG/v37yxZRe6lXb2H+om+xaetBPHyYp0qJiIiI9MOw6eH6PPEYxo99GlGRjUts4RTEbXNx+3zlypWYOXMmdu7cKT+vb9++eOeddxATE4OqVW3/7eLxe/fHy7k7r6TeVKVERERE+mDY9AJtW0fi1ReHYvOmdRj4VGf8P++8gJ+/9izGjOqHJ2I7oVlEqNNba5mZmdi2bRs+/vhjbN++XQ4KGjx4MN566y1ERUWpR1mIieMX/vs7/Lj3hCohIiIich/DphcRrZAiVNauXRPhYSHo2L4FBvbvjtdeHobf/fpF/Oz5/mjXJrLIAIKcnBzs2LEDs2bNwvHjx9GgQQO8+uqrGDlyZEH/TkG0gG7Z9hOWLNuE7OyifTyJiIiISoth00f4+VVH+7ZRGDfmafz6Vy+gf99uCAx07KMpWjpXr16NRYsW4fbt2+jatSvefPPNIq2cSecuY96na+VKRURERETuYNj0QbVqBaDvk4/hvbd/hkFP90DNmrbWSyElJQVz5szB7t275SAi0co5YMAAh2mQxFrrny7+DvEnz6sSIiIiotJj2DTMNkz1j0QV66amPRLmjbQr9/8AG1S53kRrZ++YjnjnzbGI7dXRYWBQXl4etm7dis8++wxpaWl48sknMWnSJNSuXVs9AnL1opVrdsj114mIiIjKgmGzEggI8MczA3pgyusj0SS8oSq1EK2cc+fOxZkzZ+RcnVOnTkVERIQ6a7F91xGsXitGtXNKViIiIiodhk3D9Edcjgn5JW7TMVR9htFCG9XDG68Ol4OK7Eev379/H19++SV++OEH1KpVS7ZwduniOL/n8fhzcuAQ11cnIiKi0mDYrGREv0wxXdLPXxuJBvWDVKnFrl27sHTpUuTm5uK5557DwIED1RmL88lX8NkXG5CVdV+VEBERERWPYbOSEq2cU994Dp07tlQlFklJSViwYAHu3r2LJ554AmPHjpXzc1qJVYcWfb4eGfeyVAkRERGRNobNSkwMIBo9si+GPiNWFbKNRL958ybmz5+PK1euoEOHDnjppZcc5uMUE8B/+u/v5Ih1IiIiouLIsBkeGSMP3KXHdTzpuQiedJ1Dh+PVnnsKP5ee3dvJFYrs5+XMysqSI9XPnj0r5+EU/TgDAwPVWcvUSP/f3xbhzt0MVVJ2etSNL/5/C6wbbaxjbawbbawbbXpd5/Mlq9Wee1jH2rytbqrk55g4xNhLxPYZhZkzPkRMr66qRF8iOC75ahNu3U5XJea/RqpWlf03O3fuLFs8Fy9ejIwMW8CsUzsQk14eivr1HPt/egvTxbvIN/+LiqinSshdaen3kZxyB106hqkS0sPu/SbEdo9wujQtlU1C4nWENqqFkPq1VAm5K27+Ehw5moC5sz9SJUS8jU526tWtgzdeHYGIpo1UiWUJS7Hq0MGDBxESEoLXX38dwcHB6ixk383PPt+A23dsAZWIiIjIimGTHIjVhl6ZOARtWjVTJRbr16/Hjz/+iLp16+K1115DvXq2lkAROP/9xUZdbqkTERGRb2HYpCKqV6+G8WOfxmOdolWJxZYtW7Bjxw7Zsin6cNoHzvSMTCxeslF+JCIiIrJi2CSnxHyco57tgx6Pt1UlFtu3b5ebdU11+1vqYtCQCJyZmZyHk4iIiCwYNqlYwwbHykng7YnWTfsWThE8rcTgos+//B737+eoEiIiIqrMGDapRGJ5yz5PPKaOLETr5u7du2UfzldeeUUuc2l17fptLF2+Gbm5D1UJERERVVYMm+SSp/t1Q98nHQPn1q1bceDAATRo0EAGzoAA2zydFy9dx/JVP+DRI86sRUREVJkxbJLL+vftVuSW+oYNG3D06FE0atQIEydOhJ+fnzoDJJ27jG/W7VJHREREVBkxbFKpiFvqvXq0V0cWa9euxcmTJxEREYHx48c7rKV+PP4cNm09oI6IiIiosmHYpFIbMqgXunVprY6A/Px8rFq1CufPn0fLli0xevRodcZi7/4E7D94Uh0RERFRZcKwSWUyYmhvdGjXXB0BeXl5+Oqrr3Dp0iV06NABQ4cOVWcsvt9yACcTL6gjIiIiqiwYNqlMxDyco0f2RcsWTVQJkJubi6VLl8o11Hv27IknnnhCnVGtn9/swAXTVVVCRERElQHDJpVZtWpVMX7M02japKEqAbKzs/HFF18gMzMTAwcORKdOtgFFeXmPsGzlVty4eVeVEBERka9j2CS3+PlVx8Rxg9AwpK4qAdLS0vD555/jwYMHeO6559CiRQt1BnKy9yVfbcK9e9mqhIiIiHwZwya5rWbNGnhpwjMIqmM3sfu1a1i2bJm83S5GqIeGhqoz5jCanokvv97CSd+JiIgqARk2wyNj5IG79LiOJz0XwZOuc+hwvNpzjxGvSQRNETgDAvxVCZCcnIxvvvkG/v7+ePHFFx2WtbySehMr1+yQfTn1eD6e9P8keNJ1WDfFYx1rY91oY91o+3zJarXnHtaxNm+rmyr5OSYu8eIlYvuMwswZHyKmV1dV4nlMKVfl2uiif6ZV37590b9/f1y/fh0LFy5ETo5t3fSYnh0weGBPdVT+TBfvIt/8Lyqiniohd6Wl30dyyh106RimSkgPu/ebENs9QvaVJn0kJF5HaKNaCKlvuytD7ombvwRHjiZg7uyPVAkRb6OTziKbNZaj1O3t3LkTR44ckasMjRs3DlWr2r7t9h1IwE+HE9URERER+RqGTdKdmH9z0NM91JHFunXrcO7cOTnp+7Bhw1Spxfrv9yHp3CV1RERERL6EYZMM0TumI3p2b6eOgEePHuHrr7+Wt9Iff/xxxMbGqjOWOThXrNmO6zfuqBIiIiLyFQybZBixrGXrVhHqCHIqJDHpu5iDc9CgQWjTpo06I87l4svlW8zn7qsSIiIi8gUMm2QYMe3R2FFPoXFofVVimYPzyy+/lMtbjhkzBuHh4eoMcDftnpwS6eHDPFVCRERE3o5hkwwlJ30fP8hhDs7Lly9j1apV5nN+mDBhgsOUSJev3MCab3epIyIiIvJ2DJtkuDq1A2Xg9Pf3UyXAqVOnsHXrVtSuXVsGThE8rRJOJWP7riPqiIiIiLwZwyaVi9BG9eQtdXFr3Wr37t04evQoGjduLG+p25/bseso4k+eV0dERETkrRg2qdy0im6KZwYUnRLJZDLJwUIDBgxQpRbfrNstb6sTERGR92LYpHIlVgzq3q2tOoIcKCTWUL9z5w6eeOIJdOnSRZ2BHCj01YqtSM/IVCVERETkbRg2qdwNfaYXWjS3jULPzs6WUyKJqZFGjBiByMhIdQa4dy9bTomUm/tQlRAREZE3YdikcieWqxz3/NMIaRCsSoCbN2/KSd/FufHjx6NePdta5Vev3cbKNTvk5O9ERETkXRg2qULUqOEnR6gHBgaoEsjlLDds2ICaNWti4sSJ5sfUUGeA02dTsHX7IXVERERE3oJhkypMvbp1MH7M06hWzfZtePDgQbmFhIRg7NixDiPUf9x7AkePn1VHRERE5A0YNqlCNYsIxbPDnlBHFhs3bsT58+cRHR2NwYMHq1KLdRv2IOXiNXVEREREno5hkyrcY52i8URsJ3UEPHr0SPbfvHXrFnr16oXu3burM2L0+iMsW/mDXNqSiIiIPJ8Mm+GRMfLAXXpcx5Oei+BJ1zl0OF7tuccT62bAU4+jTatmqgS4f/++HKEuRqoPHToULVq0UGeArKz7WPLVJjx4kKtKPPM16UGP67Buisc61sa60ca60fb5ktVqzz2sY23eVjdV8nNMHOLrJWL7jMLMGR8ipldXVeJbcnJy8eni73Dt+h1VAjkN0iuvvGI+l4MFCxbI1k6r6JZNMXHcQId+naVlungX+eZ/URG20e/knrT0+0hOuYMuHcNUCelh934TYrtHOPRxJvckJF5HaKNaCKlfS5WQu+LmL8GRowmYO/sjVULE2+jkQcTa6RPGDUKtWrYR6mJ1IbHKUEBAgByhLj5aJZ27hO+3HFBHRERE5IkYNsmjBAfVwoSfDUT16tVUCXDkyBHs27cP9evXx7hx4+RcnFb7D57ET4cT1RERERF5GoZN8jhNwhti5PAn1ZHFpk2bcPbsWTRv3hzDhw9XpRbrv9+Hc+cvqyMiIiLyJAyb5JE6dWiBPk88po4gVw9asWIFrl+/jm7duiE2NladsZz7evU23LyVpkqIiIjIUzBsksd6ul83tG8bpY7EAKIcfPnll8jKysKgQYPQunVrdQZyZLoYoZ6ZeV+VEBERkSdg2CSPNnpkX4SHhagj4O7du3JKpLy8PIwZMwahoaHqjPlc2j18tWILHj7MUyVERERU0Rg2yaOJgUJiwFBQHdvUJJcvX8aaNWvg7+8vR6jXrl1bnQEuXb6Bb9btVkdERERU0Rg2yePVrl0TE8YNhJ9fdVUCJCQkYNu2bQgKCsKECRPM5/zUGSD+5Hls23lYHREREVFFYtgkr9A4tD6ef66vwwTuO3fuxPHjxxEeHo7nn39elVrs3H0Mx04kqSMiIiKqKAyb5DXato7EwP62ddKFtWvXIiUlBW3btpWDhux9u/5HpFy8po6IiIioIjBsklfpHdMRj3dto44gBwp99dVXuH37Nnr37i2nRbLKy3uEL7/ewimRiIiIKhDDJnmdYYNj0KJ5uDoCsrOz5Qh18VFM+N6iRQt1Brh/P4dTIhEREVUghk3yOmK5ynHPP42QBsGqBLh16xaWLVsmJ3gXS1o2bNhQnbFMiSRaODklEhERUflj2CSvVKOGHyaOH4TAwABVAphMJnz77bfmczXw4osvOkyJdPnKDaxcs12GUSIiIio/DJvkterVrYMXxg6Qc3FaHTt2DDt27EBwcLCcg9N+SqTEMyn4fssBdURERETlgWGTvFpE00YY9WwfdWSxfft2HD16FGFhYRg7dqzDdEn7D57E3v3x6oiIiIiMJsNmeGSMPHCXHtfxpOcieNJ1Dh3WJyT5Wt10aNccBw44tliK2+nJycly/fRhw4apUotNWw8i4VSyOnLka3Uj+OJrEljH2lg32lg32vS6zudLVqs997COtXlb3VTJzzGxE5uXiO0zCjNnfIiYXl1VCdkT82oePnpGHYl+nTXw+uuvo1GjRtiyZQt+/PFHdQaoVq0qXp4w2PwOCEC++V9URD11htyVln4fySl30KVjmCohPezeb0Js9wj5vUv6SEi8jtBGtRBS37YcLrknbv4SHDmagLmzP1IlRLyNTj5k+JBYRLdsqo6ABw8eYMmSJcjIyMDAgQPRqVMndcYyB+dXK7bizt10VUJERERGYNgknyGmRPrZ6P5yaUur9PR0GThzcnIwatQoNG/eXJ2xzMG5ZeseZGVlqxIiIiLSG8Mm+RR//+pySqSgOrbbYteuXZNzcArjx49HaGio3BcyzUFz85Y9MngSERGR/hg2yefUqR2IlyY8g4AAf1UCnD9/Ht98843sx/nSSy+hbt266oyY9D0DS5dv5qTvREREBmDYJJ/UMKQuxo8Z4DCY4vjx49i6dauc7F0Ezpo1a6ozwMVL1/H1qm149OiRKiEiIiI9MGySz4qKbIzRI/uqI4vdu3dj//79aNCgQZFJ388kXcS36/eoIyIiItIDwyb5NDEH5zMDeqgji++//x4JCQlo2rSpXEddDCyyOnr8rJyHk4iIiPTBsEk+L7ZXR/PWQR1Bro++evVq2Y8zOjoazz33nDpjIVYY2r3nuDoiIiIidzBsUqXwzICe6NyxpToS82zmyRHqV65cQefOnTF48GB1xmLr9kP46XCiOiIiIqKyYtikSuO5EX3QskUTdQQ596aYg/P27duIiYlBnz6Oa6yv/34f4k+eV0dERERUFgybVGlUrVoF48c8jSbhDVUJkJWVhcWLF8tVhp5++ml0795dnVG329fuxNmkS6qEiIiISothkyoVP7/qmDhuIBrUD1IlQFpaGj7//HMZPIcPH+6wrOWjR/lYvuoHJF9IVSVERERUGgybVOkEBgbglReHOKwydOPGDXzxxRdyPXWxrGWbNm3UGcjJ3r/8egsuXb6hSoiIiMhVFRc2N4agin+zErepG9XjiXQkgqYInAE1bKsMpaam4ssvv5QTu48dOxZRUVHqDJCb+xBLlm3C1Wu3VQkRERG5onzDpn3AHBmoCos3bySDJxlD3EofOOAJVK9eXZUAJpMJy5cvl3NvTpgwAREREeoM5Prpi5duxPUbd1QJERERlaR8wqY1ZLoYMLVYgydDJ+klpEFdDHw61hw4q6kS4OzZs1i1apVcXejFF19E48aN1RkgO/uBDJw3b6WpEiIiIiqODJvhkTHywF1FrxOIqZohMwvrc1KQX2gLCwu3O07FTCdPzRI6Q7BBHTtj3GsqGz2uc+hwvNpzjy/WjTvXCA1tgHHPPy1Hq1uJFYbWrl2LGjVq4OWXX0bDhrYR7JmZ9/HvJRtw67Z24PSVurHH62hj3Whj3Wjz1br5fMlqtece1rE2b6ubKvk5pny1ry/Rmlk4ZE6+ifw5Weqg9Da81QzDFqgDZcraFMQNUQc+LrbPKMyc8SFienVVJeQu08W7yDf/i4qoh4RTyVi5Zoec8siqR48eGDZsmDlgZuKzzz7DzZs31RmgTu1ATHp5KOrXs41sJyAt/T6SU+6gS8cwVUJ62L3fhNjuEahWjeM69ZKQeB2hjWohpL5tsCC5J27+Ehw5moC5sz9SJUSG3UYPxFT7oClCpmipdCNoCkPnWFo8z87IVSWilbP4Fk4iV4l11EcOf0IdWRw8eBCbNm1CrVq18Morr6B+/frqDJBxLwv//mIj7tzNUCVERERUmMF/Iqtb5W6GzMKi30k1h86bmKKOifTSpXMrDB8Sq44s9u7diy1btqBOnTqYNGkS6tWrp84A6RmZWLR4PW7fSVclREREZM+4sClbM29iqDrUXxbizEF2/WR1SKST7t3a4pkBPdSRxY8//oht27YVBM66deuqM5YWzs8+38DASURE5IRBYdMcBHVuzdQydI6RgZYqq9heHfF0v27qyGLnzp3YsWMHgoKCirRwisC56PP1HKVORERUCHuaE2no88Rj6Nenizqy2L59uwydwcHBRQLnvXvZ+OyL9bhx864qISIionIOm2oqJP8wfJykikqSFIze8nM4EIjK31N9usrQaU/cThehU7Rwvvbaaw6BU0yL9NkXG7jSEBERkeL5LZvRWRgnp3AKxBpO5k4VQNxOf7J3Z3VkIW6nW/twisDZoEEDdQbIyrLMw8m11ImIiLziNrofTu1Tu0QVZMBTjxcJnOJ2+tatWwsGDdlP/C6Wtvz8y40wpVxVJURERJWTx4fNpFnBmKf2iSqSCJyFb6nv3r1bzsNZu3ZtGThDQ0PVGSAn5yG++GoTziZdUiVERESVj7Fh07omesEWooKjH6a1ty/X3lq97yc/A8hFu2i1S1RBxC31vk86Bk4xD+fGjRsRGBgoA2eTJk3UGeDhwzx8tWIL4k+eVyVERESVixfcRreInXET7zFskgfo37eb3Ozt378f33zzjVxLXaw0FBUVpc4Ajx7lY9U3O/HT4URVQkREVHl4RdgU65/vece2RCVRRROtmwP7d1dHFkePHsWqVatQvXp1vPjii2jdurU6A7ne+ncb92LHrqOqhIiIqHIwNmwOUWuiF2zWJSZzMfOkfXnxW9wQ+UlEHuWJ2E4YMqiXOrKIj4/HsmXL5P748ePRqVMnuW+1fdcRrP9+rwyfRERElYHX3EYn8kS9erTHyOFPokqVKqoEOHPmDJYsWYKHDx/i+eefR8+ePdUZi4OHEuVt9by8R6qEiIjId5Vz2LSsZ56fk8r+l+Qzuj7WCmNG9UPVqrbAeeHCBfz73/9GdnY2hg4div79+6szFmLA0JJlm/DgAbuHEBGRb5NhMzxSzpruNj2u40nPRfCk6xw6HK/23OOLdVPRz6VDu+Z4YexAVK9eTZUAV65cwcKFC5GWloa+fftixIgRDi2gyRdS5XrqYl11Lb5QN4X54nVYN9pYN9p8tW4+X7Ja7bmHdazN2+qmSn6OqRw7j4nlKq3TH5VWFtbn3MRQdVQZxfYZhZkzPkRMr66qhNxlungX+eZ/URG2JSfdkXLxGpYu3+zQYikmfX/55ZflpO+nTp3CypUrkZeXp84CQXVq4cUXBqFRQ32eQ0VLS7+P5JQ76NIxTJWQHnbvNyG2ewSqVWPvJ70kJF5HaKNaCKlfS5WQu+LmL8GRowmYO/sjVULEPptEumoWEYpJLw1DrVoBqgTIyMjAokWLcOnSJbRr104Gz4AA2/n0jEx8uvg7nE++okqIiIh8B8Mmkc4ah9bH668MR93g2qoEsu+m6MN5+vRpREZG4vXXX0dwcLA6C9kSumTZZhw5dlaVEBER+YYKGiDk2nZ2hroVOVlMoVS5b6GTd6lfLwhvvDrC4da4GJ0upkU6ePCgvKU+efJkhIXZbjU/evQIa7/bjS3bflIlRERE3s+jWzaj30nF+snmnQUh6D3LumwlkXeoXbsmXnt5GCKbNVYllsnd169fjy1btsj11F977TW0atVKnbX4ce8JLF/5A3JzH6oSIiIi7+Xxt9GH/joNseaPe98PxgZLEZHXCAjwx8sTBqNdm0hVYvHjjz/KgUJVq1bFhAkT0KNHD3XG4tRpU4kj1YmIiLyB5/fZjM6FZQ2WQKzZKHeIvIoYPfyz5/ujZ/d2qsRCrDa0ePFi2Z9z2LBhGDx4sMPUSKlXb2H+p9/iSupNVUJEROR9PD9sJvnhhNol8lYiRA59JgbPDOjhEChTUlKwYMEC3Lp1CzExMZg4cSL8/f3VWciWTdHCeTz+nCohIiLyLh4eNgMxtX0w9qojIm8X26ujbOW0n/z9zp07MnAmJycjOjoab7zxBurWravOioFFeVi9dic2bT3ANdWJiMjrlHPYFJO6N0MVlzf7CeCzMGqI2iXyYqL/5qSXhjrMxXn//n188cUXOHToEBo1aoSf//zncooke3v3J+CLrzYhO/uBKiEiIvJ8nn8bXcrFzJOc+oh8R5Pwhpg86Vk0DLG1YIqpj9atW4cNGzbISd9feeUVPP744+qshZj4fd6na3Ht+h1VQkRE5Nk8P2zKOTZT8V60OibyEWLSdzEXZ3TLpqrE4sCBA7KVMycnR66nLrZq1Wy33e+m3cPCf69jP04iIvIK5Rw2Szepu9zmcOoX8l01avhh4riB6NWjvSqxEP03582bhxs3bsjWzUmTJqFWLdv6zWIOTtGPc/33+5CX90iVEhEReR4vuY1O5LvE6PQhg3rh2WFPyGmSrKwDhxITE9G0aVNMnToVTZo0UWctDh46JddVT0vPVCVERESehWGTyEN069Iar77oOHBI3EoXS1z+8MMPcsUhsaZ6z5491VkLMQ9n3MJvcDbpkiohIiLyHAybRB4komkjTHl9JMIaN1AlFrt27cLSpUvx4MEDDB06FKNHj4afn20JVzFCfenyzdj8w0E50IiIiMhTVHjY3PCWsymPxBaGj5PUg4gqkaA6tfD6K8PRuWNLVWKRlJQk+3FevXoVnTt3xuTJk9GggWMo3bMvHp99sQHpGbytTkREnkGGzfDIGHngrtJcxxoyhy1QBUX4YVp78ZiQMq2JXhGvqTh6XOfQ4Xi15x5frBtfe01i0vfRI/vKNdSrVrWtOHT37l0sXLiwYD5O0Y+zY8eO6qzFxUvXMXfBN0g8Y5LHvlY3Vp50HdaNNtaNNl+tm8+XrFZ77mEda/O2uqmSn2Mq9yVJRNDUDpnOZGF9DufZjO0zCjNnfIiYXl1VCbnLdPEu8s3/oiLqqRLPk3LxGr5evQ337mWrEgvRuimmRRK300X43LhxIx4+fKjOWjzetY0cfGS/YpHR0tLvIznlDrp0DFMlpIfd+02I7R7hMIiM3JOQeB2hjWohpL5tpgdyT9z8JThyNAFzZ3+kSogq4jb6xhCHoDllrZPpjuR2E1PUY8TKQ8PeClT7bkpaiN7+kajisI3W5ZZ90qzRha6rvfWedUF9FlHxmkWEYurrzyGyWWNVYnH8+HHMnz+/YHokZ7fVDx05zUngiYioQpV72Nyw1hoaRWtlCuI0l6C0zMl5dkau5XBBsNuBcMNb5qDX/i9O1lo/jGntGQDJc9WuXROvTByM2F4dVImFCJoicB45cgShoaGYMmUKunTpos5a3Lh5F/MXrcXe/fp0wyAiIiqNcg6bgVijWjWnrHXttnj0O2mqhdMPp9wJmxs/sLWoTv4M+Tkmte3ATNXdYO/7/TB1o2XfPRPNQdp6fefbnnei1GOJXFO1alU8M6Anxo8dgIAAf1UqJnjPxdq1a7Fy5Up5/Nxzz2HMmDGoUaOGPBbExO+bth7E4qUbOXiIiIjKlRd0/slFO7f7sG7D1JFLLbsxf8TZOf0t+1IU3ttpC5zzPloIDoInT9a2dTNMfeM5hIeFqBKL+Ph4xMXFITU1VQ4aevPNN9GsWTN11iL5Qir+NX8Nl7okIqJy4wVh0w+n9qndstq4CfPU7pTfv4Giy6xHYcTYbpbdfeuwjmmTPJxYV11MjxTby3Ek+u3bt+Vo9T179iAoKEguc/n000/LVlGr+/dz5FKXy1f+gKys+6qUiIjIGOUcNrMwarJlb95I16Y02vBWiAqKuWhXNCW6JOlMotrrpnmN6GEjECv3DmP5evbdJM8nRiU/M6AHJo4bhJo17W+Z52Hz5s1YvHgxMjIy0KdPH7zxxhtFBg+dOm3CnPmr5UciIiKjlHvL5tCRWWovEMP8mxXTRzIQU+3n4ZychvfKGDbPJh5We23RRusa0S3QSe3uTUxWe0Ser1V0U7z581GIinQcrX7hwgXMnTsXCQkJCA8Pl3NyFl7qMjPzvmzh/HrVNrZyEhGRIcr/NvqQm1ivWjeFeSPtVw2y36wtmkIW1s+xhtTSuoDT1kG4MdFopXaLFX/ezX6bS81BuvB0R/pMr0TkTJ3agXhl4hAMeOpxh0ngs7OzsWLFCqxatUq2eIqlLl9++WUEBwerR1icTLyA2fNWI+EU/9AiIiJ9Vcik7oLrE7u7O6H7BXzctx+miX6fYnDQTmd9NoVtmOo/yRJwi32cNjHPZqv3ra2oGjSufeDgUVy8lKqOnPvd7/8bL4wfhZYtih/JPnBAXwQEBKgjKs6NW5mA+R3QMMR3JnW+fuM2Nm/dh7S0e6rEok6dOnKkesuWLZGTk4NNmzbJyeALi4oKR78+j6NWYE1VUjpZ2Tnm55CFqGZ1VQnpIfHsDbRuGeLwxwS55+LlNNQNDjD/sWbrhkLu+ffny3HqVCIWxv1NlRBVYNi00g6deq0a5GqIdD9sarO7tiCmXnIYEQ98PGshdv94UB05t3XbHrRu3QrBwUGqxLk/f/gfJT6GLLKyc5Gfn28OVraphHyBaMU8euwkzienqBKbHj16YNCgQXLloXPnzslpk9LT09VZCz+/6ujUsa35D5tIVeK63Nw8ZJrrtW4Q/+DR083bWWhQryaqVGHY1Et6xgPUqFENNfyrqxJy1/KvV+H8+XNY/On/qhIiDwibxvOEsCnYtbCiG2aeXF3qPqhcrlJ/3rBcpTvOnL2Ibzf8WGSpy7p162LkyJFo3ry5bOXcsmULDh4s+sdORNNGGDG0Nxo1dL1+uFylMbhcpf64XKX+uFwlOVMJfmo112GeTj3YTa/EEe9UTlq3isBbPx+N9m0du17cvXtXjlb/7rvv5PGwYcPkNEn169eXx1YXL11H3MJvsHX7ITx8mKdKiYiIXMc/kctRdOu2ao+o/IhpkX72fH+MGdXPYYok4aeffsKcOXOQlJSEyMhIORG8mCrJfl7OR4/ysXvPccyOW4WzSZdUKRERkWsMCpuBmPqWdQ10Y4l5OIufrzMKbazzXu9Lwlm1W6yOLXS+ha5ER6u5PInKX8f2LfD2lOfRro1jP8y0tDQsWbJEjlgXt9TFJPBimqSmTZuqR1jcTbuHpcs348vlW3DnboYqJSIiKp5xLZsLQuT0Ra5M3F42hebhLEarttbb14k4rTX9UNJ5nFC7sW2bqz2dJSVhr9olqgi1agVg3JinZUtnYKDjAJ4TJ07gn//8J44dO4ZGjRrJieCHDx/usMa6cCbpIubMW41tOw/z1joREZXI4Nvolonbq+jcypk0K0wG2YLR3SWw3b4+jFMaYTNp/ToVBLth3LDipxYqqw1r1frsBn4NIleIPpxvTxktWzvtiXk516xZI/tziqUvu3fvjl/+8pdyrXV7ImTu3H0M/5y7Us7RSUREpEWGzfBIfUbQ2K6Thbi1dpOwy1ZO10Jncc9FTJMkrtPqfT9VAkxZ63x6JIfrDJmKmepw3kcLnUzYfgHrVqj5MWNGYITdPXTrdTa8ZTdB+1vbZJmDjR+g9yztX7rhTTrhr9ZW2EJfw1WHDltnp3eP/v/f7tHjOr74mgQj60a0bIp+nBN+NhBBdRxH4yYnJ8u+nNu3b0fNmjUxZswYvPrqq2jYsKF6hEVaeqZcfWjx0o24fuOOKi1eZarj0mLdaGPdaPO063y+ZLXacw/rWJu31Y3BUx+JW91aLZCuzKPp7ufbMYfBKiNVy6LDPJf2UxKJ8GpC3BDLvj0RNm1LZxadJ9P++rEzdmDPO3Ytl0kL0bv9XwpaTssy7ZHAqY/05+tTH7kqJycXP+w4jAM/nZLzjtoTI9TFaHUxGfyjR49w4MABGUIfPHigHmEh5n/s1qU1uj/eAVevZ3HqI51x6iP9ceoj/XHqI3LG4J9aWYjLSUG+fStnAXWLvdjNedCcstZ8zdJO+D5kum2ZzAWTzNe2tlTagqYIic6CZmntfb+f3fXNW0HQFM+9bEGTyEj+/n4YMqgXJk8agcahjtMfidvpX3zxBb7++mtkZGQgJiYGv/rVr9ClSxf1CAsRUg8dOY1Fi7/F2aRk5OU9UmeIiKgyK58/kYfcNIdDrdDpOkvITClzIBw6x4T8k390MiJctDaaHFsjS8scZvNzTA7rvjsQraHm83qEWSKjhIeFYMrrI2XwrFHD1l1FOHnyJGbPno2dO3fKQUNi6cvJkycXGbUuWklPnjyNf/xrBU4knFelRERUWVXcCkIbQ1BlZMl9OEXAZECz4G10/fE2uraMe1nYuGm/0wFAYgWiwYMHo21by+A7MZJ98+bNsuWzsLDGDTDo6R5oHsXb6u7gbXT98Ta6/ngbnZypuJ9a1tbOEjYGTaKKUad2oJwi6ZWJQxDSIFiVWogViJYtWyZHrV+/fh2dOnWSt9afeuopuea6vdSrt+QAoi++2iT3iYiocinnsGmZG3PqRnVIRB5PtEi++fPRsnVS9O20J0atz507Vy57mZubi379+uHdd9+VUyaJAUP2zp2/jHmfrsWK1dtx+066KiUiIl9XIS2b80aqAUB9g51MQ0REnqZq1SroHdMRv/rFGHTu2FKVWoiBQWLZy1mzZmH37t2yP6eYDP6tt95CmzZt1KNsEk4lY3bcany7/kc5dRIREfm2iu38sy8YrdTI896zHFtMiMjz1K5dE6NH9sUbr45Ak3DHOTfFVEhbt27FP/7xDxw/fhwNGjTACy+8gNdff73IICIxhdLho2fkIKINm/bh3r1sdYaIiHxNOYdNNRVSTmrBJOtWe98XqwJZpjsybolLItJD0yYN5TRJzz/XD8FBjoMr0tPTsXr1asTFxSEpKQkRERFy6UsRPMUymPbE9Ehibs9P5nyNjZv3M3QSEfmgCmrZzMV7O62DgG5iiiq1sM2/ydZOIs/WqUML/PIXY/B0v27w96+uSi2uXbuGJUuW4LPPPsOlS5fkLfVf/OIXcjUiMVG8PbH85f6DJwtCZ3oGb68TEfmKir2NLllbO81boXk4ba2dYfiYnTuJPFL16tXQ54nH8M6bP0P3bm1l/057JpMJCxcuxFdffYUbN27IddbffvttjBw5EsHBjqPcraFz1pwVWLdhD+6m3VNniIjIW3lA2LRjNx3S2Rm5qlDww7T2vL1O5Mlq1QrA8CGxeHnicISHhapSm9OnT8uR6ytXrsSdO3fQtWtXOV3SiBEjioROcXtdrEb0j3+txJpvd+HmrTR1hoiIvI1nhc0Cgfjf93kLncgb1atbBz16dJV9OqMiG6tSCzFyPT4+Xq5E9M0338hJ4B9//HEZOsUI9sKhUwwkOnYiCbPjVmHZih9wJfWmOkNERN7Co8LmhrcsfTWLromei5knS7kWOhFVKDFa/dUXh+KlF56RqwjZE6Hz6NGjcuT6t99+K0OnmJvznXfewbPPPot69Yqu6JR4xoT5i77Fv5dskHN2EhGRd6jwsJk0y9ovsxmGLVCFVpOtt9VT8V60KiMir9KyRRO53vq4MU+jYUhdVWohp0A6fFiGzrVr1yItLQ3dunWTLZ1iIFHh0evCBdNVuRrR3AXf4Hj8OfM1KmbFXSIick3FhM2kYPRWAbNVkdvlWVhvHTA0x3HAEBF5r3ZtIvHmz0dhzKh+RZa/FKHzyJEj+Oc//4k1a9bg1q1bciDRm2++KadMKjxPp3Dt+m2sXrsTH/9zOX7cewL37+eoM0RE5EnKOWxalqus0j4Ye1WJVeyMVNWKydvlRL5KLGHZsX0LvDVltJyjs0F9J300jx3DnDlzsHz5cqSmpsopk8Q8na+++iqio4ve4si4l4Ut237C3/+xDN9t3ItbtzmYiIjIk8iwGR5ZaIb1Mir1dWLScFa1Yu55xzL6vMKeiwZPus6hw/Fqzz2+WDe++JoEX60bETrFHJ1vT7WGziB11kL06Tx16hTmzZuHL774AhcuXEBUVBRefPFF2dr52GOPoWpVx7+Vc3Mf4qfDifjn3FVYsmwTks5dUmeK56t1rAfWjTbWjbbPl6xWe+5hHWvztrqpkp9jKscOT6JlMwRYm4K4IaqIXBbbZxRmzvgQMb26qhJyl+niXeSb/0VFFB2QQmWTln4fySl30KVjmCopmQiXJxMvYOfuY7h+444qdRQWFoYnn3wS7dq1k2FVDCo6cOCAXJf9/v376lGO6tcLQq8e7fFYp2jUqOHdM1zs3m9CbPcIVKtW4V3tfUZC4nWENqqFkPqOq2BR2cXNX4IjRxMwd/ZHqoSo3G+jWyZwZ9AkInsiPHZo11z26XzhZwMQHmb+o7QQcUv966+/loOJDh48iICAAAwYMAC//vWv5bRJYi32wm7fSZdrr4tb7GKS+GvXnQdZIiIyDv9EJiKP0qZVM/z8tWfxysQhaNE8XJXaiAnh169fj5kzZ+KHH37AgwcP5LRJv/zlLzFx4kS0bNlSPdImJydXThI/d8EaLPp8vRzFLiaOJyIi4zFsEpFHah4VhpcnDJbTJolWT9H6aS87Oxu7du3Cxx9/jNWrV8uWz1atWuGll16Sy2H26NED/v7+6tE2KRevyVHs/zfrK2zaegC3bqerM0REZASGTSLyaGJC+LGjn8I7b41Fz+7t4OdXXZ2xyMvLw/Hjx+Vgok8//VSuUFS/fn0MGzZM3mIfOnQoQkKK3pbPzn6AvfsT8M+5K2Vrp1ipSKzNTkRE+mLYJCKvUDe4NoY+E4NpvxyHAU89jtq1a6ozNhcvXpRrr4vWzp07d5rD40P07NlTtnROmjRJzt1ZrVo19Wgb0dop1mCf8cmXcvqky1duqDNEROQuhk0i8io1a9bAk7074723x2HUs32KLIUpiJHq27Ztk/06V61ahZSUFERGRspViURrpxhYVLeu42pGwoMHuXL6pAWfrcOceatly2dmpvOR7kRE5BqGTSLySmIKIDGlkejT+drLw9C+bVSRuTfFLfYTJ05g0aJFcqJ4MVWSaNkUUyi9++67ePnll9G+ffsinyfcuHlX9ukUI9m//HoLEk4lc1AREVEZVPvTf077k9onD7dw0VcY8sxTaNrU9fkLqXhiTkihbnDRW7JUNg8ePMTdtPto3KiOKjFecHBtOYio62OtUL16Ndy8lSYnebeXlZWFpKQk7N+/H7dv30bt2rVla2eHDh3krXZxnJ6eLh9nT8wBKgYRiXlADxw6hbt37yEgwF9+zfKUcjkNEeHB5mDsOFCKyu7GzUzUruWPwJpFB5JR2Rw6fAJXr97AiOEDVAkRw6ZXYdjUH8Om/ioibFrVqOGPFlHhiOnRAQ0aBOPevSykZziGR7Ek5tWrV+Va7GKVInEcGhqK5s2byxHsrVu3liPfRSAVLaP2xACi1Ku3cPT4WRw7noSs7AeoVSvAvBn//cOwqT+GTf0xbJIzDJtehGFTfwyb+qvIsGklAlloo/ro1qW1nLdTEK2dIljay8zMLGjtvHnzppwovlmzZjJwxsTEyBCak5Mj5/Ys7P6DHDmwSPTxPJVoMr/uHNnaGWAOvEZg2NQfw6b+GDbJGYZNL8KwqT+GTf15Qti0V6d2IFq3ikDP7u1Rt25tZNzLwr172eqshQih169fx7Fjx3D06FE5h6eYPkkEz86dO+Pxx8Xo99rmz7snA2phmVn3kXwhFfsOJCDp3GV5C1+Mnvf312+JTIZN/TFs6o9hk5xh2PQiDJv6Y9jUn6eFTSvRl1Msg/l41zZo1bKpLBN9MQsP+hErEplMJtnaeeHCBdlns3HjxgW32cWAoho1auDu3buy1bOwjIwsJJ2/LINnsinV/JiHCA5yP3gybOqPYVN/DJvkDMOmF2HY1B/Dpv48NWzaC6pTS95ej+nRHvXqBSEr+z7S04u2WKalpeH06dPYt28frl27Bj8/P/P7r6lcElPcZhcBVIxuF8FTzOlZWFraPSSduySD5/kLV+SymUFBgbJvaWkxbOqPYVN/DJvkDMOmF2HY1B/Dpv68IWxaiemTxDydXR9rjU4dWsrVicRocxEK7Ynb7Ddu3JCrE/30009y1HpgYCAiIiJk/87Y2Fi5L6ZQEsGz8MAiIc0cZq0tnmeTLskVjMTE9GLeUFcwbOqPYVN/DJvkDMOmF2HY1B/Dpv68KWzaCzSHvhbNwxHTswOaNmloDpj5uH0nXd5Gt5ebm4vLly/j8OHDcplM0Y+zTp06Mmy2bdtWBs/w8HA5ol0reIp+o6KP54GfTuHkqQtyxLwYWFSnTqB6RFEMm/pj2NQfwyY5I2cyDo+MkQfu0uM6nvRcBE+6zqHD8WrPPb5YN774mgTWjTajriNCYnTLpnI99vffnYBnhz2BZhGh6qwjMUp99+7d+Ne//iW3Xbt2yVvvbdq0wfPPP4/f/OY3eOGFF+Qymf7+zgONmDx+957jmL/oW/z2P/4pl8sULZ/urNPuSXXs6f/fZcW60fb5ktVqzz2sY23eVjdV8nNMjn+2k8eK7TMKM2d8iJheXVUJuct08S7yzf+iIuqpEnKXaC1OTrmDLh19qwX+zt0MnIg/jxMJ5+Q0SsURA4rEQCIxYbwY1S6IFs5z587JuT1FP1Ax4r044pZ+y+ZN5Ej61tEROBJ/DbHdI+Stf9JHQuJ1hDaqhZD6tVQJuStu/hIcOZqAubM/UiVEDJtehWFTfwyb+vPVsGnv6rXbOB6fhIST4hZ40YFF9qzBU2wNGljWcRd9QMV67SJ4JiYmyj6gJQkKCkKXzi3Qxhw+xah6ch/Dpv4YNskZhk0vwrCpP4ZN/VWGsGnPlHIVCacu4GRiMjIzLX2AtTRs2BDt2rWTmwihVqmpqbK1UwRPMeq9JGLVougWTdEquqlcMcnVQUbkiGFTfwyb5AzDphdh2NQfw6b+KlvYtBIDiS6YriL+5HmcOm2So82LU7duXTmgSGxi8njRV1SwTrd05swZOc+nswFG9sTniZbO6JZN5G13MbjJei0qHsOm/hg2yRmGTS/CsKk/hk39VdawaU/cJhejzU8mXkDimRRkZRXf4lmzZk05hZIYWCTm8LQOJhKTxp8/f14Gz7Nnz8qR7yUJCLCsD9+yRRM5ul6sZETOMWzqj2GTnGHY9CIMm/pj2NQfw6Yj0eJpSrlmDp0muYZ6SX08xSTxYrJ4ET7FFhwcrM4AV69eLQieYvqlwtMyOVO/XhCaR4XJ4Nk8Moy33O0wbOqPYZOcYdj0Igyb+mPY1B/DZvEuX7khb7OL4Cnm8SxJo0aN0KpVK7lZJ44XxLKaSUlJMniKUe6utHqK2+uNQ+vL4BnVrDEizZsY9V5ZMWzqj2GTnGHY9CIMm/pj2NQfw6brxBybp8+k4PTZFFy6fEOVagsICJC32UXwjI6ORq1atpAkBhaJ0CkCqBjpXlJfT0FMEN8kvCGiIsNkq2dE00ZyDfnKgmFTfwyb5AzDphdh2NQfw6b+GDbLRoxkP5N0UYZPsY56bm7RtdYLCwsLk+FTBE/7Vk+xTrvJZJLhU/T5dGWEuyDm8BThU7R4ivApBhv5cssnw6b+GDbJGYZNL8KwqT+GTf0xbLpPrB4kBhidPXcRZ85eNNdp8f08BTGoSPT1FOFTbNbJ5IXMzEwkJyfL4Ck+imU0XSFaPsVId7GCUmREY/lRDEDyFQyb+mPYJGcYNr0Iw6b+GDb1x7Cpv+s37mDzthPIzcnExUvX5LrtJREDi1q0aCGDpwihgYG2ddfFMptiWiURPMXHjIwMdaZkjRrWk6HTugUHeW9QY9jUH8MmOcOw6UUYNvXHsKk/hk1j7N5vkstVilZPcZv93PnLcg31kka3W4WGhsrwKYJnZGSkw1rtt27dkqFTbOL2e2nCZ1CdWrKvp9hE+AxtVK/gdr6nY9jUH8MmOcOw6UUYNvXHsKk/hk1jWMNm4bXRxTrtIngmnb8kp1hypa+nCIPh4eGIioqS4VP09/Tz81Nngdu3b8vQad1cve0uiD6e4ta76O8pwmfT8IYIDAxQZz0Lw6b+GDbJGYZNL8KwqT+GTf0xbBpDK2zay8t7hIuXruNc8mUZQMUa7q7MxSnCZ5MmTWT4FFvh8CnWbhcj3MUmwuf169fVGdfUq1tHhk8x+EhsYvolTxj1zrCpP4ZNcoZh04swbOqPYVN/DJvGcCVsFiaWzEw2peJ88hU54MiVeT0Fa8unuN0uNrGcZo0atsngs7OzcenSJVy8eFEGUDHBvBgB7yox8KhxaIOCFlARQEMa2CavLy8Mm/pj2CRnGDa9CMOm/hg29cewaYyyhM3CxKj2C+bwKYKnCKAZ97LUmeKJyeDF5PIidIpNtHzar2wklucUqxuJ8GndRGtoadSo4Yewxg1k8BQhVGxGL7XJsKk/hk1yhmHTizBs6o9hU38Mm8bQI2wWJlo6RfC8YLoKU8pVl8OnEBQU5BA+xQAkEUqtRNgUrZ/WLTU1tVStn4JYWlMEULGJ8Ck+ilvyemHY1B/DJjkjf2qFR8bIA3fpcR1Pei6CJ13n0OF4teceX6wbX3xNAutGG+tYm6vXEeumP961DcaM6odfvzMev3pzDEYOfxKPdYousVVRhMn4+HisX78ecXFxmD59OhYvXowffvhBLqEp+ny2b98ezzzzDF5//XV88MEHmDJlCoYPH47HHnsMISEh6kraRDcA0QL7494T+HrVNsyaswJ/+/sSLF66EZt/OIjj8efkKkyu9Eu14veNNr2u8/mS1WrPPaxjbd5WN2zZ9CJs2dQfWzb1x5ZNYxjRslkScdtdtHimXLwmNxHsSqNBgwZo2rRpwSZuxdtPiyTWdxctnqLPp3Ur7e13QYyAF1MuiX6g9h9LWv2ILZv6Y8smOcOw6UUYNvXHsKk/hk1jVETYLEy0NKZcuiZHvIvtSupNOe+nq0Rrp1hiUww+EqPfxVavnuN77969ezKAij6gInxeuXKlVPN+Wolb+uKWe0H4DLV8tJ+EnmFTfwyb5AzDphdh2NQfw6b+GDaN4QlhszAx1VLq1VsqfJpD6OXr5rCYrc4Wb8SIEWqPiCrS450bqj3jMGx6EYZN/TFs6o9h0xieGDaduZt2D5fMoVME0MtXbuLqtVsylBYmwmbr1q3VERFVhDNnzpRL2PTsn1pERORVxMCiju1bYOgzMZg8aQQ+eP9lvPHqCAwZ1AudOrSQg5KIqHJh2CQiIsOIllgxcXuvHu3x/HP95Ij3306bqM6WHzEXqHUjqswq4j3AsElEROVKzJ9JRJUHwyYRERFRJZWRkYns7PvIzX0oWz1LM2+tqxg2iYiIiCqp1KvXcOv2HRk4nQ3m0wPDJhEREVEllZRkwqVLV5GekYHc3Fy2bBIRERGRflKvXsft23eRlZXNlk0iIiIi0ldmZhbuP3ggVwMTrZps2SQiIqoI52Zj4MDZOKcOiXyFdVCQESHTimGTiIgqLxEig4IQ5LANxGytVGkfOrUCaJFrvovN6lS5ceV5EpUThk0iIqrcek7HkfR0pBdsW/B2S3WusJZvY8uWt6F1uoD9NVcCYyoy7Ln6nIkMwrBJRETkjH0LZdcPcMBaJoPjOcyeai478AG6ms8P1GwKNRs0Aq8dOIPz6nNnv2vX2mn/NezLBr6Ldwday4PwrrVp1OHxqgW2yHULPbe//MXWsuns82XxQFVm3ioyGJNPYtgkIqLKTYUyx7C1Ge+aA2aHlap18sh09FQPt2iJt+PMZaoFc4tmU6gIcn/Dop6t0UIcmL/WmRHimp9gUKGvcWR6AsZYU+WBBLSOU1975WtYNEaESPH4M/idKJPPaTRWT1XB0OG6hZ7biw3kJaH1+eYAOvWDDlipyld2MAdj9RlEepBhMzwyRh64S4/reNJzETzpOocOx6s99/hi3fjiaxJYN9pYx9p8sW4MVfg2urjlfO4MEszl7wxSjyktuwDbdfVoHLHexra/ZqGv0XLIaPRctM4cCc16jsYQa34VLaNIwJlt5sdjEcZYQ7FobRUtpuIxrjxX8fWcfX7L1uggyy0tq4M+EYGVyDWuvMdl2Lxi2icP3KXHdTzpuQiedJ3Hu3VUe+7xxbrxxdcksG60sY61+WLdeB37AKtnf0n768qtlMHQ6ecPwidyfwTWySCqbucTucCV9zhvoxMRERUmWvsOrMZGa5/GjastfTYLs7YsloX8Gh9glkp28mu8NqJoeNy8DotES2d/x8eXqPBzK/T1CpybjXdl500ROo9ges8EnGGnTdIRwyYREVVudre8LZsYOGMOXis74IOulrKpZzoU6rNp1vJt/O41y23pYgcIaTJ/jSPTkTDG8jW6in6Tn6ioaf+cxgArZeuo4+PlpjWYx/65LbmlCjU+3xxCzS9UlXXF6tFx2qPxicqgSn6OybhZPElXsX1GYeaMDxHTq6sqIXeZLt5FvvlfVEQ9VULuSku/j+SUO+jSMUyVkB527zchtnsEqlXzjTaCQ8dvoHVrc8gpJ2LiaquqVT28DsWI8alAHKcrIgOI94L1PXDmzBns2r4WERHhaNumJSKahqNWrZrmnzPV5Hm9sGWTiIiIiAzDsElERORJOAk7+RiGTSIiIiIyDMMmERERERmGYZOIiIiIDMOwSURERESGYdgkIiIiIsMwbBIRERGRYRg2iYiIiMgwDJtEREREZBiGTSIi8kjpP/2EXZ064daWLarE5tbmzfKceAwReTaGTSIi8jh3zSHyxC9+gV6TJ+PinDm4YQ6XVjc2bYLp739Hr6lTcfoPf5CPJSLPxbBJREQeZ/8rryCye3fkXL+O6O6P49L8f+DUihWIX7YMKbP/jlYxvZCTmor2I4dj/6uvqM8qJ+dmY+DA2TinDsmL8P+uQsiwGR4ZIw/cpcd1POm5CJ50nUOH49Wee3yxbnzxNQmsG22sY22+UDePzZqFY1u24ObVy7h9PhmNmkRh78J/4dBnc9EosiXuXLyEO2l3kLB5Ix77ZJb6rDIQ4SMoCEF227u2RtSyY6gxnlH/d1QqrrzHZdi8YtonD9ylx3U86bkInnSdx7t1VHvu8cW68cXXJLButLGOtflC3TQeOBBd//UvnD28H1k3ryI9KRm96zVETN2GyE69jvw6NXH2yAFEvD1NPtYtPafjSHo60sV2ZDoSxjC0eA3+31U4V97jvI1OREQeKXzQILT72ydIPn8auZlpeHD1Ou7fScfda1dxdMNatPnTdIS5GzQLa/k2tojQ8jfVKunQejYQsws3VTo9fw6zp36AAwc+QFdz+UBRWNJ1yH2l/b+jcsOwSUREHuuRect5+BC5iaeQ+9NPyN2zB34XzamhSlXk5edbHqS3lq3R4cAZnMdmvNv1DH5X0HI2Gqun2t8a1zrfEm/HTUdP1eq25e3zJVyHdOPy/x2VJ4ZNIiLySKbNm3Ho3V+gQ1om6t17gBpBNRFQJwDBt+6hQ3oWDr33pnyMYc6dQQIWYYy1dayraK0UQUYp6byVq48j/bDOPQrDJhEReZwL5hC5e8IE9MnIRsOM+6gdXBt/DwzEjDp1UDuotrksG33N25Ffv4MLTubhdIsIKj1bo4XYt+8TKLdPMEg+SCnpvJWrjyP3lOb/jsoNwyYREXmcre++i6E5OQhNz0Rg3SD8T+06ePOv/403/uNP+HtQEAKDg9Ao7R765+Zh+69/rT5LD+L26wfo8Lu30VLekv0As7QaT0s6b21JK+lxpJNS/N9RuWLYJCIijzN88WJ8V7s2bjcJw7/M4XLsH/+EnuPHo8/LL2PI7z7A/LrBuFWvLjb7+2PIp5+qzyojNZDHMpDkb2h9JB2fyCawQfhEjXC2nDNvDtMZFXO+5dv43WuW27gDZ7co4TpUZmX+v6PyVCU/x2RQD2vSW2yfUZg540PE9OqqSshdpot3kW/+FxVRT5WQu9LS7yM55Q66dAxTJaSH3ftNiO0egWrVfKON4NDxG2jdurU6cu7qTz9h4xtvoMMf/oAeP/uZKrU4sHw5Tkz/CMPnL0Dj7t1VqbZHj8RQI4uqVdnOQpWXeC9Y3wNnzpzBru1rERERjrZtWiKiaThq1app/jlTTZ7XC99xRETkkUSInHTsWJGgKfQcNw5vHDnqUtAkoorFsElEREREhmHYJCIiIiLDMGwSERERkWEYNomIiIjIMByN7kU4Gl1/HI2uP45GN4Yvj0ZfdMpPfjRSvt3SllWqVFF7RJXPq20ecDQ6EREREfkOhk0iIiIiMgzDJhEREREZRobN8MgYeeAuPa7jSc9F8KTrHDocr/bc44t144uvSWDdaGMda/PFuiEiz+TKe5wDhLwIBwjpjwOE9McBQsbgACH3cIAQkQUHCBERERGRT2HYJCIiosrl4j8wc/I/cEMdlpqrn7/nl3i3V025Ldujyiohhk0iIqq8RGhQYcC2PYXtF9V5IxQXVMoaguxCjdymf28pL/T6Zn55zsnXOIftkw1+zUYq7rW7EyitnNWhFoev+T2WTYvH6BXZ+GR/NsZHlOH5aL02L8OwSURElVun/8EfzGFABALLth1PRahzXuDGl0/h3WnAVLvXMBXf4qQIO2NXoqsKO5/sX4PwC0lAxDB0xUokWMPlxfU4gjHo4EWv2Ur7tZdRkYCqUYdaIn6FaQt+hYZi/+IZXEFHNHKlXp0EY91fWwVi2CQiIirCHDLsW7Fk69ZT2H5AhIJfYtlkW2tTwe1RhxawX1pCgQoR26dby85h+59/iwsnfov/sr++5OScs2s6OIeErcDoFf9Ee1UitP/AemwfdgZj/AeDzR9bosMA4Mhu62s7DQwYZglIXqW4116oLv/1p0L/D6XhrA4tEuT1LJv8PigIjSKkmr8+FiJOnJ/8IdZp/r87U9L/q3dh2CQiospNBQBraHhXhgVzqFjxP8DHM1VAFK1b2/GUmGThRDxCP1StTTPfwJ5pIrxYwkX4TEv5H96LR5z1lqf5+tf6iXIRFFriqQ//B1GqNXXahJaWx0iFzyVpX9NKtEqe0Go9G4xOo1TYKfR5DSM74oJqoTu5YyHCI+2fh5co9rUXqssRDQr9P7hKuw5t1zNv4vvgU/uWScv3j/Xrf7Lgzxih+f/uRLGvzfswbBohaSF6+0eiisM2Gh8X0/LuiuQLl8ybt3aq8UwrV63FipVr1RHp4dSps/jb3/5PHZFefvOb3yI7+746Il1ZA4F1s94GjfgVXhIBr1dHHBmw0HZrvZPdLefez6I34nH9wBlcMV/n6d6W4oZPjkHUGnXL0668VMRtWK1r2uvURrNVsv0H6jX1+9YSpK2BSTxvea1zuH7uDXQqy/PzBMW89iI0/x8srdiyfkRrpN0fH6IFUrMO7a8X0QZRatd1xXzddbdK99o8HMOmzja8ZQ6W7f+CverY5jCmtY9E71kX1HHpZWZmyY30c/HSFVwyb6SftPQMJJ4+rY5IL8eOHUNe3iN1ROVFtAB6tIjWCD9h1/9SS+9/mgPTGhUwBdFiZw7Je9bjSMtnvfLWrMuvvUSDMd76h4Z9a6R5c2iBLFKH7irm674Zq9Nr8wwMm3ra+AGGLVD7kz9Dfo5JbTswU02wv/f9fpi60bJPRESe7HsskwM01iD84zecj9be8y32iJbOniL4/BY/qP6bN3avxIVRxYS4E6cdBoM4sJ6TYaqkaw7G0+8Bq8c69kM8Od18LPoP2t/6lS2lttay9v06YvW03yK832DzOdE31O4aJR17hGJeu9ovtp5dUUIdlprLz8eF1+ZFGDZ1sw1TRy617Mb8EWfn9LfsS1F4b6ctcM77aCHcvKNORER6sbt9adnENEDiFucoYKbo3zcY42eag5n1F7/940UYlbfdLX30rkyzlP/Xxx0x1W4giYOIX2Gw6gdYZKCIw7lol67ZcMJ2S39O8XzUFgdzKBWjzs+NKih7V4yq/lB1ERBkFwAvvoVupvnaxUn7uhS3pcuipDosjeL+350o9rV5GS5XqZeNH6CKCptT1poQN0TuOkiaNRqt3j9s3uuGmSdX471oS7mr6tRvj5kz/ojJr7+gSshd037z33IZu49nfKBKyF3fb96D//c/puPIgW9VCekhMLgtUlN+QnBwbVXi3bx2uUrR0vVn4CVrv04iL8PlKr1Y0plEtdcN7TRCZPSwEYiVe4exfH3Z+24SEREReQuGTZ2cTRQtlkJbtNFqsYxugU5qd29istojIiKvEWE3aTcRuYRhUxcXcDpe7cZEo5XaLVb8efbbJCIiIp/HsElEREREhpEDhMIjY3DFtE8VlZ0e1/Gk5yK4dp1tmOo/CfPErhiJvvMNFL6TbrnOdM3HTXv/L1j33VZ15FzSuQuy0661Y6+Wpk0aF9u594LpEqIim6qjsvOk65T1Gjdv3ZEfQxrUkx9ZN9pcvU5W9n3cunVbdjR3hnWsrbjrnDtvQvOoiBLf/4I31M1Xy1Z45wAhIi+n9wAhV3ISR6ProuSwaaH9uGvXbiLj3j115Nzw5ybhzZ+/jE6d26oS55o2CTN/o7DR2hWf/GMR8s3/3vvV66qE3PXToRP4nxlzsfzL2aqE9PBYtyHYu2s1As2/CHxBWmatgrBJRBWjvEajM2zq4gI+7tsP00SwL2PYdEVsn1GYOeNDxPTqqkrIXX/+68cybP7pP6epEnLXj3t+wu9+Px27t69UJaQHMfVZaspB1K5dS5V4N/upj4ioYjBsehWGTW/FsKk/hk1j+GLYJKKKx7DpRcSa6JalKidifc50DJWlhdmFTbGcpcMqQyVj2NQfw6b+GDaN4Wth05mMjEykXr2GpCST+eN1ZGZm4dEj49aD//Sz5ejRvTM6dSy+axK5bs++Q7h8+Sp+Nma4KiFPV6dObYQ1boTo6Ejzx1AZNl3pG14aDJs6cWl1oKSF6N3+L9hr3o2dsQN73omylLuIYVN/DJv6Y9g0RmUIm9licNntO7h06Spu376L+w8eOAzs0ZvoW/xUvxj07NFFlZC7Nm/ZifPJFzH15y+qEvJ0NQMCUL9+XTRt2hj169VFQEANhk2PVQ7LVTJs6o9hU38Mm8aoDGEzN/ehDJzpGRnIysrGw4d5hobNd6f9CSNHDsKA/k+oEnLX8hXrkJh4Dn/8w7uqhDydn191BAbWRFCdOqhZMwDVq1fTfcYGhk3dlNRv09V+ndoYNvXHsKk/hk1jVIawKW6Z5+U9MofOXPnRyKApvPjKO5gw4TmMGDpAlZC7Fv17OY4dP4WP/+9DVUKeTgRLETCrV68uZ7IRxwybnsyuddOxT6Zd0DTTavksCcOm/hg29cewaYzKEDat4bLwR6OMGfcLvPLy83ju2WdUCblr3oKlOHrsJOb8479UCXk6a7As/FFPnIxRT0OmY/1ktb9gEqr4R6rNFjRFX82yBE0iIl9nbVER/cXEJkbEGrlZv5azc9zKton6FPXq7Bw3z9ys7zfr+88IbNk0gt1AIJuy9dO0l5eXJ78xSD+i5URs4o1G+uH3qv5Yp/oTt+2N/AVbGfFnKjnDsElEREREhuGfHkRWokVadX3oPeuCKiS3sV71xzrVH+u0YrDeKwWGTU9n90a0baPxcZI6T0U5rTPz1nchWG16EwsVWOv4A2xQpVQW9nVp2/gLuAzEYE0ndTl1ozpPJRCDWstQZ/x9RRoYNj2YWJWoSpG+n8JhTGvPX0JFqV/WTuvMbN9f0Mp8nvWmF/ELSa2IRW6whkzWpftUSLLOClLIvJGinvlHUYmStmK5GtTqKv6+ouIwbHoq81/mluUvzcQ0Sjkmte3AzBhL8d73+/EvdQ1i1L+tzszbyT8iVp1jveljw1u2WRaojGRLkC1kimnRHL5v105UZ6hkjlPMFf4ZcHZGN8sJLMUw3uXQJr4ntf5g18LfV1QChk2PtA1TrX+ZiwngHdZQj8J7O21v4Hkf8YemA/WDrshSoNFvYI9d4Jy3dpvao7IQq2FZfrl0Q6z6XqTSMr/Prb/Uxfvc/H1bZFq0IdNLvaxtpbUxziFoFq636HdW2wLnvr/gfxl87Nh14Sht0OTvK3IBw6Yn2rjJ1tLxe2crDUVhxFjrD811WMd3r9IfcQ4/6AqJHoBx1mC0YBNvpZXVxg/UsquiJW41/rOj3KVSSpo1S73Pu2Hmp6VfUYwcJZ1JVHvdMG6Y84AePWxEwR+cJ87wtq4u+PuKXCDDZnikPk0TelzHk56LUBHXsf+h2c7unWt/DdsPzcNYvr50PzR9sY71ei6H1Efn7P76N2/F9UHyxbqR17FbJausK2EVfT6u16s9767jbfhfFdgx+Z2C+Xf1e01dy1SnhVVM3Tjn+nUO41Qxgab493hxHL9Pa4R0V+VlV/51o8X8h3qOCWFhYZbb36XovuHs91Xh51PW31eW65Tt54OV59SxhSddpzyfiwybV0z6dLzS4zqe9FyEirjO2UT1Swht0cYubDpcI7oFOqndvYnJas81vljHej2Xx9XHosQPPGvfOjFBv5Nb9XZ8sW6ubP05equg6c5KWI7Pp3T1as+r69i+NWikrTVen9e0Dc+m3i5TnRZWIXWjoaTrRLduq/aKuV2blIQcuaPd+ulc0e/TBzd/kkfuKK+6cVVZruPs91WR65Tx99UV0/Qy/3yw8oU6dkaP65Tnc+FtdI9zAafj1W5MNFqp3WLFn2c/GFfYj7B0tW4l+1HX4geeeytBeSfzL1trX67Jn5U5vDiqvPVqaw2aiFHm0C76wFpbbgq2Mg1iqcTfq0OmFvQNtMw8UXjUubluPlJ9C+1ak0vG9782I39fsd59CcMmVRob/m7r+B47doCLfeTEDzzrCNfK+gPP7od+kQEAZVW569XWGrQUw8zB0toH1kGpp+qq7N+rjoNRrHUrgvvUjXZ1U6rvYb7/Kwbr3dcwbHqcZJySbzDSVdJC/NU6NQcm4j9dapnjDzzBNsXRRKzfqcdAlsper3atQZKoA9sUPYX7zLk2ZQy/Vy1E4PwMU9SR1byRqm7EbBUufw+zTktmxO8r1rsvYtikSsDuFrDZlLXTMVTta0vmDzwz+ymOZp50pd5Kwnp1ZA7wOU7qYMh0h8BZ/JQxrNMCcuUgSyu8Zc5S+5ZOswWTVEunOtbEOq0YrHdfxbDpcZqjnT4DxEgSfyVb+/24PrBl7/uT1A88s1L17/JVllVAHPoUqq1gMmeH25aqqBDWayHF9XNz6IOYhLNqtzDWqSImIy8yU4Jo6bS0FtsmdRctncUvocg6dZW+v69Y776LYZN8msMqN2Ud2LJgUpmnjqFisF6LDZEiKLUpmMM0EaddGVVRievU1ifbMuiqMDGpu6212PzH0+suDsDi92nFYL37FIZNj2P3C6bYX0R2OrbghNBO2G4Bm4m+WqUZ2CJXIrL1/dr7/rRiW0J8lfwFbd+X0Mm2frJ6sLwlbCnTbD1mvZrZh0gdsE7NtmFNwXv9Ge3uHi62FrNOXaXz7yvWu89i2PRArdpab/cU05qRdB4n1G5s2+Zqj6xE0CwY4St+gJVyBLWlTvsjrmCJS3EbufBUKlRarFcLl97jLmKd6o916jo9f1+x3n0Xw6YHsk1OrL0SRtL6deqWUWknJ/Z97gZNB2JN9YJbb0sxrExzH1IRlbxe7d/j2iuq2M9hOAIjSrp9we9Vi2KXorUbPe3KvJCs0xIZ8vuK9e5zGDY9kd2tHuejUC9g3QoVplz5JVSJ6Bo0rYZMt90qFnMfvrVNHZBbKnO92r3H974f5zwcbYwr6G/s8rywlbZO+2NUQXeOpfirVl8/u5WbWKc6Mer3FevdpzBseqQovPd79VddkTeZ/RxkwJTf6zHvoW8wJGgqQ+fYTaHCjuu6qbz1avceFy03hVe7sVuDXkxCvrgUA9sqa50OnWPf169fkdctfj4U1KnLc+1a8P1fHON+X7HefQfDpqey/6vO/CazTTVje+O6sz61z3OoM42tVLdmHCeLdm2ibSpZJa5X83vcNjpaBE677027UFT6ifQra53a9/WzvG7797ttlSYxkK20c8b6ep2Ktd+dff+JaaLsyossAaoY9vuKP3d9BcOmBxs6x4R8ux+eNmKyW5NO61OT6xx/mYkfwvzBp4dKXK8icBaeeFyxTEpe1on0K2mdir5+OY5zatpjnRrHuN9XrHdfUCU/x5Sv9omIiIiIdMWWTSIiIiIyDMMmERERERlGhs3wSCcdhspAj+t40nMRWDfaWDfaWDfaWMfaWDfaWDfaeB1trBtt5flc2GeTiIiIiAzD2+hEREREZBiGTSIiIiIyDMMmERERERmGYZOIiIiIDMOwSURERESGYdgkIiIiIsMwbBIRERGRYRg2iUhbUjB6+zdDFYctBBvUaSIiopIwbBKRUxveMgfL9sHYq46JiIjKgisIEVFRG0NQZWSgZX/yTeTPybLsExERlRJbNomoiA1rVdBEFtYzaBIRkRsYNomoED+cjle7MblopXaJiIjKgmGTiLR1zEW02iUiIioLhk0iKiAHBfmHYdo+VbAgxPlIdLtR6lM3ykc6jlzvG4wkVezIDx/3tV7LbtN8vCL6kBb+nLcCnT8Pq+LO2UmaFaauWdwo+1I8b7uv23uWn6VM6/mXKBBTC3+e3MRztX9OJc0QYHedkuqaiEhnDJtE5DZXRq4XCbL29gWjlTkIFQ2FKlBZByvZE0G4HEbLl+15K4kqeGo9/2JCouXrhmCeOnYUiGHm57S84/2C479ag60zGwMLrjPl92lsrSaicsWwSUQFhs5JQX5OKmbGqAIxEj1HlFm3mxiqTlnNG9kMwxaoAw2i9bDgMUWuaft680aG4WO7ZrcNb9lCXuyM1EKfdxNTLKcMU9bnbbV3QaAMw4Wf+9kZuZYHaIREETQLvm5MGs7afa7D/0/b7II62LsiULPF0n7A16ghapeIqJzIsBkeaf3J5R49ruNJz0Vg3Whj3WirfHWTi5kn7QLRTrvWs40haPW+JVBNWZuCsO86y32bXLy30xqg/DDt7yoYmT/PGrjE5+15xxrQLMIjOyPuZBpi1XFZ9f7LJbVXSKHnXXT6J43nbU8FxcLPPfqdVKyfbNnf+35wQeumrGO71y0Drn1dSuLrmp/PWvF87mOUug72BWKdSpuO/1eBWKOuFzsjrcgfC8Xxnu8/13nSdVg3xWMda/O2upFh84rJ2f2h0tPjOp70XATWjTbWjbZKVTeyxS8V72ncmy1oVTMHr98M0bpOLkaMVYFsQaClP+JHjp9XmF6va88fm6o9R4Wft3OFn7ej2LFZmresW7W1BlA/nFYhUbwml6edGnJThtihv7YGbj8sX28Jx/Z1kzQrWN1Cz8W4YY6htyR61LFe/0++eB3WTfFYx9q8rW54G52I3DJlZHHzcNq1qhUTvITo1vbhyw+n1M+vkj7PGGV93mq3zGxfF5OzXGuFjM7CONWwUPRWuh/WrVC36WOyMKL8K5KIiGGTiAxkDo0n1O7e962jvjU2+0E0JtvnVYiyPu9SsIVUO3ZfN7ag5bMkdq2r+4Lxv/aDlZICsVyFdg4MIqKKwrBJRB7GD6dS1K5ZJ2ehzCOZn7fbLZtlE/1OWsFAoXkFt+HNWXO9ZYASBwYRUUVi2CSiclF0NLn2FtdHfZIHKNXzrrBAZw6T1oFCBX1HbbfQSzswiIhITwybRGSc6Fx0Urt7E1XfwVI6caZsn+cWHZ53mbjxdYcW9J0NxBpxK31jsJo2qvQDg4iI9MSwSUQGykU766wYTkZra7IPXcXMH+mq0gfWMj5vt7nxdYdkOdxKt42m58AgIqpYDJtEZKBcvPd7W4vbsBKXaBQrBolVdexuC9vNH1lEkp/2CkKutBLazaXpqKzP212l+LpJwZjqMCF8Fn5jnSx+gd0cpRwYREQVjGGTiIw15GbBBObaSzRa1/m2rRhkP3/ktPaFV+hRa30XOxLcvh9jSKElJYtZBtOqjM/bbUPSbCsEia9bZC1z9TXbBxcZsR89LKvQJPccGEREFY9hk4gMJ5bBLAhuosWu8PRBzsJadBr2yFVyBBE47R+v1gyPyS12BaGhc2xLWoplNYt8vck37ZaOLKpMz9tt9isTman11136mnZzbkquztVJRGQghk0iKheWddftw1shBWuA262/PkSsTuRsDfQsrBeP/dQaRrVkIc7p11SfX9wKPUqZnrfb1JKUmuu/W55/4WUwHW/D52Lmr0t+fURERquSn2PKV/tERN4lKRi92wfLfpti/fKKm3rIc2x4q5mlv6YIwUXWVSciKn9s2SQi8hXm8P1XF5fZJCIqLwybREQ+wn7FoP8scoudiKhiMGwSEfmEQPyvdRonDgwiIg/CsElE5AOSZgVbRuhzYBAReRgZNsMj7efKKDs9ruNJz0Vg3Whj3Whj3WhjHWsr+3Vs66CLFYM+GsC60eJJ12HdFI91rM3b6oaj0YmIiIjIMLyNTkRERESGYdgkIiIiIsMwbBIRERGRYRg2iYiIiMgwDJtEREREZBiGTSIiIiIyDMMmERERERmGYZOIiIiIDMOwSURERESGYdgkIiIiIsMwbBIRERGRYRg2iYiIiMgwDJtEREREZBiGTSIiIiIyDMMmERERERmGYZOIiIiIDCPDZnhkjDxwlx7X8aTnIrButLFutLFutLGOtbFutLFutPE62lg32srzuVTJzzHlq30iIiIiIl3xNjoRERERGYZhk4iIiIgMw7BJRERERIZh2CQiIiIigwD/PzPxW/Gb8oe7AAAAAElFTkSuQmCC;" vertex="1" parent="1">
          <mxGeometry x="217" y="207" width="667" height="436" as="geometry" />
        </mxCell>
        <mxCell id="qN_40rcRcU1MGpUcR6L0-2" value="Right-click the trace, and choose &quot;Export to CSV.&quot;" style="shape=callout;whiteSpace=wrap;html=1;perimeter=calloutPerimeter;direction=south;size=30;position=0.42;fillColor=#f8cecc;strokeColor=#b85450;spacing=5;fontSize=14;" vertex="1" parent="1">
          <mxGeometry x="850" y="510" width="210" height="60" as="geometry" />
        </mxCell>
      </root>
    </mxGraphModel>
  </diagram>
</mxfile>
